<svg width="42" height="42" viewBox="0 0 42 42" fill="none" xmlns="http://www.w3.org/2000/svg">
<circle cx="21" cy="21" r="21" fill="#E43F6F"/>
<path fill-rule="evenodd" clip-rule="evenodd" d="M23.1206 26.9747C22.4946 33.4161 20.8859 38 19 38C16.925 38 15.1855 32.4507 14.7215 24.9838C12.4517 23.1506 11 20.3448 11 17.2C11 13.495 13.0149 10.2606 16.0087 8.5328C16.7937 5.71979 17.8449 4 19 4C19.962 4 20.8518 5.19273 21.5759 7.21631C26.8308 7.5147 31 11.8705 31 17.2C31 21.9952 27.6248 26.0021 23.1206 26.9747ZM20.2857 27.1749C20.0755 29.1465 19.77 30.8922 19.4006 32.3192C19.2686 32.829 19.1337 33.2778 19 33.6678C18.8663 33.2778 18.7314 32.829 18.5994 32.3192C18.1963 30.7616 17.8692 28.8245 17.659 26.6283C18.4896 26.9226 19.3707 27.1103 20.2857 27.1749ZM22.3838 10.1328C25.6982 10.7781 28.2 13.6969 28.2 17.2C28.2 20.3606 26.1635 23.0456 23.331 24.0143C23.3764 23.036 23.4 22.0287 23.4 21C23.4 16.8674 23.0183 13.0792 22.3838 10.1328ZM19.5177 10.1528C20.1733 12.9113 20.6 16.7211 20.6 21C20.6 22.1666 20.5683 23.2984 20.5089 24.3835C19.4012 24.3089 18.3621 23.9837 17.4479 23.4643C17.4165 22.6639 17.4 21.841 17.4 21C17.4 16.8885 17.7939 13.2101 18.4065 10.4813C18.764 10.3432 19.1352 10.2328 19.5177 10.1528ZM15.1084 13.0603C14.284 14.2313 13.8 15.6591 13.8 17.2C13.8 18.3915 14.0894 19.5154 14.6018 20.5053C14.6217 17.8215 14.8025 15.2934 15.1084 13.0603ZM18.1027 35.5061C18.1025 35.5039 18.1165 35.4869 18.1455 35.4621C18.1175 35.4959 18.103 35.5084 18.1027 35.5061ZM19.8545 35.4621C19.8835 35.4869 19.8975 35.5039 19.8973 35.5061C19.897 35.5084 19.8825 35.4959 19.8545 35.4621ZM19.8973 6.4939C19.8975 6.49615 19.8835 6.51305 19.8545 6.53787C19.8825 6.50405 19.897 6.49165 19.8973 6.4939ZM18.1455 6.53787C18.1165 6.51305 18.1025 6.49615 18.1027 6.4939C18.103 6.49165 18.1175 6.50405 18.1455 6.53787Z" fill="white"/>
</svg>
